<svg xmlns="http://www.w3.org/2000/svg" width="458.221" height="720.354" viewBox="0 0 458.221 720.354" xmlns:xlink="http://www.w3.org/1999/xlink" role="img" artist="Katerina Limpitsouni" source="https://undraw.co/"><g transform="translate(-764.119 -179.451)"><g transform="translate(764.119 179.451)"><g transform="translate(115.76 364.958)"><path d="M1033.347,505.323q-.811,12.133-1.622,24.244a389.057,389.057,0,0,1-5.52,50.426c-2.749,13.947-7.12,27.782-14.938,39.656-7.819,11.852-19.422,21.653-33.167,25.258a60.773,60.773,0,0,1-25.732.563c-16.065-9.125-26.948,2.546-10.905,14.42a124.3,124.3,0,0,0,11.334,7.458l7.278,112.367L824.882,750.425l26.385-149.476a89.208,89.208,0,0,1-11.041-12.055c-15.119-20.076-20.323-46.236-19.332-71.336,1.014-25.123,7.706-49.615,14.353-73.837a189.966,189.966,0,0,1,6.129-19.4c2.951,1.217,5.948,2.321,8.99,3.245,19.445,5.9,40.107,6.376,60.43,6.354q54.246-.034,108.356-4.236a103.97,103.97,0,0,1,14.713,44.929,208.629,208.629,0,0,1-.518,30.711Z" transform="translate(-820.777 -424.321)" fill="#ccc"/><path d="M920.531,451.1a107.123,107.123,0,0,0,9.338,64.763c3.624,7.387,8.112,16.287,3.7,23.232a14.31,14.31,0,0,1-10.78,5.974,35.1,35.1,0,0,1-12.58-1.629" transform="translate(-708.701 -390.76)" fill="#ccc"/><path d="M885.434,486.241a66.823,66.823,0,0,1-2.231,17.327v.023c-.022.113-.068.225-.09.338-4.551,16.741-15.411,28.5-28.1,28.5-12.618,0-23.433-11.671-28.052-28.277-.316-1.149-.586-2.3-.834-3.492-.316-1.329-.563-2.7-.766-4.123-.18-1.127-.316-2.276-.428-3.447-.158-1.622-.27-3.245-.293-4.935v-.023c-.045-.631-.045-1.262-.045-1.893v-.563l.023-.023a66,66,0,0,1,.563-8.54c.158-1.194.338-2.343.563-3.492.27-1.4.563-2.771.924-4.123.293-1.194.631-2.343.992-3.492.5-1.532,1.037-3.019,1.645-4.439.383-.924.789-1.825,1.194-2.7,5.543-11.4,14.465-18.814,24.515-18.814,13.9,0,25.619,14.173,29.246,33.5.045.293.113.586.135.879v.023A66.654,66.654,0,0,1,885.434,486.241Z" transform="translate(-815.987 -404.608)" fill="#e6e6e6"/><path d="M828.176,449.392a1.793,1.793,0,0,1-1.487,1.712c.383-.924.788-1.825,1.194-2.7A1.887,1.887,0,0,1,828.176,449.392Z" transform="translate(-813.368 -394.144)" fill="#8b5cf6"/><rect width="23.331" height="3.503" rx="0.777" transform="translate(19.867 53.196)" fill="#8b5cf6"/><path d="M829.034,453.305a1.76,1.76,0,0,1-1.758,1.758h-1.757c.293-1.194.631-2.343.991-3.492h.766A1.755,1.755,0,0,1,829.034,453.305Z" transform="translate(-814.834 -390.171)" fill="#8b5cf6"/><rect width="6.693" height="3.503" rx="0.777" transform="translate(17.849 61.395)" fill="#8b5cf6"/><rect width="23.331" height="3.503" rx="0.777" transform="translate(29.597 61.104)" fill="#8b5cf6"/><rect width="6.693" height="3.503" rx="0.777" transform="translate(17.239 69.298)" fill="#8b5cf6"/><rect width="6.693" height="3.503" rx="0.777" transform="translate(27.579 69.298)" fill="#8b5cf6"/><path d="M829.68,456.685a1.76,1.76,0,0,1-1.758,1.758h-3.064c.158-1.194.338-2.343.563-3.492h2.5a1.74,1.74,0,0,1,1.758,1.735Z" transform="translate(-815.661 -385.935)" fill="#8b5cf6"/><rect width="23.331" height="3.503" rx="0.777" transform="translate(39.327 69.008)" fill="#8b5cf6"/><path d="M830.795,461.818a1.741,1.741,0,0,1-1.758,1.735H825.86a1.781,1.781,0,0,1-1.217-.473v-.023c-.045-.631-.045-1.262-.045-1.893V460.6l.023-.023a1.733,1.733,0,0,1,1.239-.518h3.177A1.76,1.76,0,0,1,830.795,461.818Z" transform="translate(-815.987 -379.532)" fill="#ccc"/><rect width="23.331" height="3.503" rx="0.777" transform="translate(19.867 80.234)" fill="#ccc"/><path d="M830,465.306a1.76,1.76,0,0,1-1.758,1.758h-3.064c-.18-1.127-.315-2.276-.428-3.447a.766.766,0,0,1,.315-.045h3.177A1.755,1.755,0,0,1,830,465.306Z" transform="translate(-815.799 -375.134)" fill="#ccc"/><rect width="6.693" height="3.503" rx="0.777" transform="translate(17.849 88.433)" fill="#ccc"/><rect width="23.331" height="3.503" rx="0.777" transform="translate(29.597 88.142)" fill="#ccc"/><rect width="6.693" height="3.503" rx="0.777" transform="translate(17.239 96.337)" fill="#ccc"/><rect width="6.693" height="3.503" rx="0.777" transform="translate(27.579 96.337)" fill="#ccc"/><path d="M829.154,468.685a1.76,1.76,0,0,1-1.757,1.758h-1.284c-.315-1.149-.586-2.3-.834-3.492H827.4a1.741,1.741,0,0,1,1.758,1.735Z" transform="translate(-815.135 -370.897)" fill="#ccc"/><rect width="23.331" height="3.503" rx="0.777" transform="translate(39.327 96.046)" fill="#ccc"/></g><g transform="translate(0)"><g transform="translate(91.626 101.402)"><path d="M271.16,145.025H130.009L59.433,267.266l70.576,122.241H271.16l70.576-122.241Z" transform="translate(-59.433 -145.025)" fill="#8b5cf6"/><path d="M305.1,586.938H422.623l58.761-101.776L422.623,383.385H305.1L246.341,485.161Z" transform="translate(-222.711 -362.92)" fill="#fff"/><rect width="1.529" height="63.116" transform="translate(95.771 20.313)" fill="#3f3d56"/><circle cx="4.353" cy="4.353" r="4.353" transform="translate(92.183 82.704)" fill="#8b5cf6"/><rect width="1.529" height="63.116" transform="translate(128.417 20.313)" fill="#3f3d56"/><circle cx="4.353" cy="4.353" r="4.353" transform="translate(124.829 82.704)" fill="#3f3d56"/><rect width="1.529" height="63.116" transform="translate(185.728 20.313)" fill="#3f3d56"/><circle cx="4.353" cy="4.353" r="4.353" transform="translate(182.14 82.704)" fill="#3f3d56"/><circle cx="4.353" cy="4.353" r="4.353" transform="translate(158.2 145.093)" fill="#3f3d56"/><circle cx="4.353" cy="4.353" r="4.353" transform="translate(69.693 105.193)" fill="#3f3d56"/><path d="M262.538,311.859h-1.529V235.805H228.4v-1.529h34.136Z" transform="translate(-99.221 -166.041)" fill="#3f3d56"/><circle cx="4.353" cy="4.353" r="4.353" transform="translate(102.34 172.661)" fill="#8b5cf6"/><path d="M189.472,347.918h-1.529V271.863H155.336v-1.529h34.136Z" transform="translate(-82.016 -174.532)" fill="#3f3d56"/><circle cx="4.353" cy="4.353" r="4.353" transform="translate(203.179 138.563)" fill="#8b5cf6"/><path d="M324.945,303.319h-1.529V227.265h-21v-1.529h22.528Z" transform="translate(-116.649 -164.03)" fill="#3f3d56"/><path d="M156.814,270.969h-1.529V233.155h23.254v1.529H156.814Z" transform="translate(-82.004 -165.777)" fill="#3f3d56"/><circle cx="4.353" cy="4.353" r="4.353" transform="translate(125.191 189.709)" fill="#3f3d56"/><path d="M222.714,381.517h-1.529V345.232H199.46V343.7h23.254Z" transform="translate(-92.406 -191.808)" fill="#3f3d56"/><circle cx="4.353" cy="4.353" r="4.353" transform="translate(180.689 157.426)" fill="#3f3d56"/><path d="M302,339.291h-1.529V301.477h23.254v1.529H302Z" transform="translate(-116.19 -181.865)" fill="#3f3d56"/></g><g transform="translate(0 0)"><path d="M360.564,159.982a1.784,1.784,0,0,0-1.783,1.783v57.041a1.783,1.783,0,1,0,3.565,0V161.765A1.784,1.784,0,0,0,360.564,159.982Z" transform="translate(-280.013 -156.379)" fill="#3f3d56"/><g transform="translate(10.355)"><path d="M364.3,244.644H289.357a7.343,7.343,0,0,1-7.335-7.335V163.275a7.343,7.343,0,0,1,7.335-7.335H364.3a7.343,7.343,0,0,1,7.335,7.335v74.034A7.343,7.343,0,0,1,364.3,244.644Z" transform="translate(-282.022 -155.94)" fill="#090814"/><path d="M303.581,158.392A19.107,19.107,0,0,0,284.474,177.5v58.506a6.72,6.72,0,0,0,6.72,6.72h45.829a32.7,32.7,0,0,0,32.7-32.7V165.112a6.72,6.72,0,0,0-6.72-6.72Z" transform="translate(-282.289 -156.207)" fill="#fff"/><g transform="translate(6.817 20.911)"><path d="M349.732,182.191h-40.3a1.395,1.395,0,0,1,0-2.789h40.3a1.395,1.395,0,1,1,0,2.789Z" transform="translate(-291.668 -179.402)" fill="#d6d6e3"/><path d="M349.732,215.555h-40.3a1.395,1.395,0,0,1,0-2.789h40.3a1.395,1.395,0,1,1,0,2.789Z" transform="translate(-291.668 -183.03)" fill="#d6d6e3"/><path d="M364.1,198.884H291.065a1.395,1.395,0,1,1,0-2.789H364.1a1.395,1.395,0,0,1,0,2.789Z" transform="translate(-289.671 -181.217)" fill="#d6d6e3"/><path d="M370.63,229.121H344.245a1.395,1.395,0,1,1,0-2.789H370.63a1.395,1.395,0,0,1,0,2.789Z" transform="translate(-295.453 -184.505)" fill="#d6d6e3"/></g></g><circle cx="12.478" cy="12.478" r="12.478" transform="translate(0 72.219)" fill="#8b5cf6"/></g><g transform="translate(26.005 269.54)"><g transform="translate(0 0)"><path d="M145.145,202.271H101.132a4.313,4.313,0,0,1-4.307-4.307V154.487a4.313,4.313,0,0,1,4.307-4.307h44.013a4.313,4.313,0,0,1,4.307,4.307v43.476a4.313,4.313,0,0,1-4.307,4.307Z" transform="translate(-96.825 -150.18)" fill="#090814"/><path d="M109.485,151.619a11.221,11.221,0,0,0-11.221,11.224V197.2a3.947,3.947,0,0,0,3.946,3.947h26.911a19.2,19.2,0,0,0,19.2-19.2V155.569a3.946,3.946,0,0,0-3.947-3.946H109.485Z" transform="translate(-96.982 -150.337)" fill="#fff"/><g transform="translate(4.005 12.279)"><path d="M136.587,165.6H112.919a.819.819,0,0,1,0-1.638h23.668a.819.819,0,0,1,0,1.638Z" transform="translate(-102.491 -163.958)" fill="#d6d6e3"/><path d="M136.587,185.188H112.919a.819.819,0,1,1,0-1.638h23.668a.819.819,0,1,1,0,1.638Z" transform="translate(-102.491 -166.088)" fill="#d6d6e3"/><path d="M145.027,175.4h-42.89a.819.819,0,1,1,0-1.638h42.89a.819.819,0,1,1,0,1.638Z" transform="translate(-101.318 -165.023)" fill="#d6d6e3"/><path d="M148.86,193.155H133.366a.819.819,0,0,1,0-1.638H148.86a.819.819,0,0,1,0,1.638Z" transform="translate(-104.714 -166.954)" fill="#d6d6e3"/></g></g><circle cx="8.913" cy="8.913" r="8.913" transform="translate(42.185 43.628)" fill="#8b5cf6"/></g><g transform="translate(379.963 97.176)"><g transform="translate(0 10.694)"><path d="M189.74,412.377H130.226a5.831,5.831,0,0,1-5.825-5.825V347.765a5.831,5.831,0,0,1,5.825-5.825H189.74a5.831,5.831,0,0,1,5.825,5.825v58.788a5.831,5.831,0,0,1-5.825,5.825h0Z" transform="translate(-124.401 -341.94)" fill="#090814"/><path d="M141.521,343.887a15.173,15.173,0,0,0-15.173,15.173v46.458a5.336,5.336,0,0,0,5.336,5.336h36.391a25.965,25.965,0,0,0,25.965-25.965V349.224a5.336,5.336,0,0,0-5.336-5.336H141.521Z" transform="translate(-124.613 -342.151)" fill="#fff"/><g transform="translate(5.413 16.602)"><path d="M178.168,362.784h-32a1.109,1.109,0,1,1,0-2.217h32a1.109,1.109,0,1,1,0,2.217Z" transform="translate(-132.06 -360.567)" fill="#d6d6e3"/><path d="M178.168,389.277h-32a1.109,1.109,0,0,1,0-2.217h32a1.109,1.109,0,1,1,0,2.217Z" transform="translate(-132.06 -363.447)" fill="#d6d6e3"/><path d="M189.579,376.04h-58a1.109,1.109,0,1,1,0-2.217h58a1.109,1.109,0,1,1,0,2.217Z" transform="translate(-130.474 -362.008)" fill="#d6d6e3"/><path d="M194.764,400.049H173.816a1.109,1.109,0,1,1,0-2.217h20.948a1.109,1.109,0,1,1,0,2.217Z" transform="translate(-135.066 -364.619)" fill="#d6d6e3"/></g></g><circle cx="10.695" cy="10.695" r="10.695" transform="translate(56.868 0)" fill="#8b5cf6"/></g><g transform="translate(373.929 184.241)"><ellipse cx="5.348" cy="5.348" rx="5.348" ry="5.348" transform="translate(38.16 0)" fill="#090814"/><path d="M277.469,340.443h44.342V319.97h-1.783v18.69H277.465Z" transform="translate(-277.465 -314.623)" fill="#090814"/></g><g transform="translate(89.912 94.211)"><circle cx="5.348" cy="5.348" r="5.348" transform="translate(0 0)" fill="#090814"/><path d="M156.752,323.958H112.409V303.486h1.783v18.69h42.563Z" transform="translate(-108.427 -298.138)" fill="#090814"/></g><g transform="translate(51.117 238.096)"><ellipse cx="5.348" cy="5.348" rx="5.348" ry="5.348" transform="translate(0 15.123)" fill="#090814"/><path d="M321.807,319.97H277.465v20.472h1.783V321.753h42.563Z" transform="translate(-272.955 -319.97)" fill="#090814"/></g></g></g></g></svg>