<?xml version="1.0" encoding="utf-8"?>
<svg xmlns="http://www.w3.org/2000/svg" width="994.037" height="750.305" viewBox="0 0 994.037 750.305" role="img" artist="Katerina Limpitsouni" source="https://undraw.co/">
  <g transform="translate(-598.963 -140)">
    <g transform="matrix(2.204002, 0, 0, 2.409435, -1766.863892, -795.605286)" style="">
      <rect width="427" height="213" rx="6" transform="translate(1086 427)" fill="#090814"/>
      <rect width="423" height="209" rx="4" fill="#f2f2f2" transform="translate(1088 429)"/>
    </g>
    <g transform="translate(-40.39)"/>
    <g transform="matrix(2.204002, 0, 0, 2.409435, 5594.918457, -39927.3125)" style="">
      <rect width="14.794" height="7.742" rx="2.88" transform="translate(-2152.714 16709.709)" fill="#8b5cf6"/>
      <rect width="14.794" height="7.742" rx="2.88" transform="translate(-2072.065 16709.709)" fill="#8b5cf6"/>
      <rect width="14.794" height="7.742" rx="2.88" transform="translate(-2049.214 16709.709)" fill="#8b5cf6"/>
      <rect width="51.57" height="7.742" rx="2.88" transform="translate(-2130.777 16709.063)" fill="#8b5cf6"/>
      <rect width="51.57" height="7.742" rx="2.88" transform="translate(-2023.245 16709.063)" fill="#8b5cf6"/>
      <rect width="14.794" height="7.742" rx="2.88" transform="translate(-2131.208 16727.184)" fill="#8b5cf6"/>
      <rect width="14.794" height="7.742" rx="2.88" transform="translate(-2050.558 16727.184)" fill="#8b5cf6"/>
      <rect width="14.794" height="7.742" rx="2.88" transform="translate(-2027.708 16727.184)" fill="#8b5cf6"/>
      <rect width="51.57" height="7.742" rx="2.88" transform="translate(-2109.271 16726.537)" fill="#8b5cf6"/>
      <rect width="51.57" height="7.742" rx="2.88" transform="translate(-2001.739 16726.537)" fill="#8b5cf6"/>
      <rect width="14.794" height="7.742" rx="2.88" transform="translate(-2109.701 16744.658)" fill="#8b5cf6"/>
      <rect width="14.794" height="7.742" rx="2.88" transform="translate(-2029.052 16744.658)" fill="#8b5cf6"/>
      <rect width="14.794" height="7.742" rx="2.88" transform="translate(-2006.201 16744.658)" fill="#8b5cf6"/>
      <rect width="51.57" height="7.742" rx="2.88" transform="translate(-2087.764 16744.01)" fill="#8b5cf6"/>
      <rect width="51.57" height="7.742" rx="2.88" transform="translate(-1980.232 16744.01)" fill="#8b5cf6"/>
      <rect width="14.794" height="7.742" rx="2.88" transform="translate(-2088.195 16762.129)" fill="#8b5cf6"/>
      <rect width="14.794" height="7.742" rx="2.88" transform="translate(-2007.545 16762.129)" fill="#8b5cf6"/>
      <rect width="14.794" height="7.742" rx="2.88" transform="translate(-1984.695 16762.129)" fill="#8b5cf6"/>
      <rect width="51.57" height="7.742" rx="2.88" transform="translate(-2066.258 16761.484)" fill="#8b5cf6"/>
      <rect width="14.794" height="7.742" rx="2.88" transform="translate(-2072.065 16831.613)" fill="#8b5cf6"/>
      <rect width="14.794" height="7.742" rx="2.88" transform="translate(-2049.214 16831.613)" fill="#8b5cf6"/>
      <rect width="51.57" height="7.742" rx="2.88" transform="translate(-2023.245 16832.26)" fill="#8b5cf6"/>
      <rect width="14.794" height="7.742" rx="2.88" transform="translate(-2152.714 16831.613)" fill="#8b5cf6"/>
      <rect width="51.57" height="7.742" rx="2.88" transform="translate(-2130.777 16832.26)" fill="#8b5cf6"/>
      <rect width="14.794" height="7.742" rx="2.88" transform="translate(-2131.208 16814.139)" fill="#8b5cf6"/>
      <rect width="14.794" height="7.742" rx="2.88" transform="translate(-2050.558 16814.139)" fill="#8b5cf6"/>
      <rect width="14.794" height="7.742" rx="2.88" transform="translate(-2027.708 16814.139)" fill="#8b5cf6"/>
      <rect width="51.57" height="7.742" rx="2.88" transform="translate(-2109.271 16814.787)" fill="#8b5cf6"/>
      <rect width="14.794" height="7.742" rx="2.88" transform="translate(-2109.701 16796.666)" fill="#8b5cf6"/>
      <rect width="14.794" height="7.742" rx="2.88" transform="translate(-2029.052 16796.666)" fill="#8b5cf6"/>
      <rect width="14.794" height="7.742" rx="2.88" transform="translate(-2006.201 16796.666)" fill="#8b5cf6"/>
      <rect width="51.57" height="7.742" rx="2.88" transform="translate(-2087.764 16797.313)" fill="#8b5cf6"/>
      <rect width="14.794" height="7.742" rx="2.88" transform="translate(-2088.195 16779.191)" fill="#8b5cf6"/>
      <rect width="14.794" height="7.742" rx="2.88" transform="translate(-2007.545 16779.191)" fill="#8b5cf6"/>
      <rect width="14.794" height="7.742" rx="2.88" transform="translate(-1984.695 16779.191)" fill="#8b5cf6"/>
      <rect width="51.57" height="7.742" rx="2.88" transform="translate(-2066.258 16779.838)" fill="#8b5cf6"/>
    </g>
    <g transform="matrix(1.949569, 0, 0, 1.783675, -1445.265991, 145.490555)" style="">
      <path d="M200.132,634.2a1.7,1.7,0,0,0,.52-.229L220.46,621a1.72,1.72,0,0,0,0-2.878l-20.589-13.486a1.72,1.72,0,0,0-1.885,2.878l18.388,12.045-17.607,11.527a1.722,1.722,0,0,0,1.36,3.11Z" transform="translate(1291.761 -248.875)" fill="#090814"/>
      <path d="M205.067,634.617a1.722,1.722,0,0,0,.435-3.161l-18.26-10.469,17.648-13.111a1.72,1.72,0,0,0-2.051-2.762L183.08,619.792a1.719,1.719,0,0,0,.169,2.876l20.54,11.775a1.721,1.721,0,0,0,1.279.174Z" transform="translate(1255.543 -247.852)" fill="#090814"/>
      <path d="M218.933,651.49a1.656,1.656,0,0,0,.471-.2,1.722,1.722,0,0,0,.577-2.367L191.9,602.755a1.722,1.722,0,1,0-2.941,1.793l28.081,46.17a1.722,1.722,0,0,0,1.9.773Z" transform="translate(1270.991 -254.805)" fill="#090814"/>
    </g>
  </g>
</svg>