<svg xmlns="http://www.w3.org/2000/svg" width="799.468" height="552.327" viewBox="0 0 799.468 552.327" xmlns:xlink="http://www.w3.org/1999/xlink" role="img" artist="Katerina Limpitsouni" source="https://undraw.co/"><g transform="translate(-560 -263.837)"><path d="M1352.3,232.384H580.059a13.747,13.747,0,0,0-13.613,13.848v524.66a13.74,13.74,0,0,0,13.613,13.819H1352.3a13.741,13.741,0,0,0,13.613-13.819V246.232a13.747,13.747,0,0,0-13.611-13.848Z" transform="translate(-6.445 31.453)" fill="#090814"/><path d="M1328.244,232.384h-748.6a13.225,13.225,0,0,0-13.2,13.223V746.614a13.219,13.219,0,0,0,13.2,13.2h748.6a13.219,13.219,0,0,0,13.2-13.2V245.608a13.224,13.224,0,0,0-13.193-13.223Z" transform="translate(-4.711 34.617)" fill="#fff"/><path d="M72,0A72,72,0,1,1,0,72,72,72,0,0,1,72,0Z" transform="translate(626 389)" fill="#8b5cf6"/><path d="M8,0H120a8,8,0,0,1,0,16H8A8,8,0,0,1,8,0Z" transform="translate(626 580)" fill="#d6d6e3"/><path d="M8,0H56a8,8,0,0,1,0,16H8A8,8,0,0,1,8,0Z" transform="translate(626 604)" fill="#d6d6e3"/><path d="M2,0H142a2,2,0,0,1,2,2V20a2,2,0,0,1-2,2H2a2,2,0,0,1-2-2V2A2,2,0,0,1,2,0Z" transform="translate(626 651)" fill="#d6d6e3"/><path d="M8,1.24c-3.308,0-6,1.668-6,3.719v47.11c0,2.051,2.692,3.719,6,3.719H192c3.308,0,6-1.668,6-3.719V4.959c0-2.051-2.692-3.719-6-3.719H8M8,0H192c4.418,0,8,2.22,8,4.959v47.11c0,2.739-3.582,4.959-8,4.959H8c-4.418,0-8-2.22-8-4.959V4.959C0,2.22,3.582,0,8,0Z" transform="translate(826 399)" fill="#d6d6e3"/><path d="M8,1.24c-3.308,0-6,1.668-6,3.719v47.11c0,2.051,2.692,3.719,6,3.719H192c3.308,0,6-1.668,6-3.719V4.959c0-2.051-2.692-3.719-6-3.719H8M8,0H192c4.418,0,8,2.22,8,4.959v47.11c0,2.739-3.582,4.959-8,4.959H8c-4.418,0-8-2.22-8-4.959V4.959C0,2.22,3.582,0,8,0Z" transform="translate(1072 399)" fill="#d6d6e3"/><g transform="translate(818.998 494.864)"><g transform="translate(7.002 -1)"><path d="M579.549,259.135h22.125a3.1,3.1,0,0,1,3.081,3.08v22.133a3.086,3.086,0,0,1-3.081,3.07h-22.13a3.073,3.073,0,0,1-3.073-3.07V262.216A3.086,3.086,0,0,1,579.549,259.135Zm22.125,27.288a2.09,2.09,0,0,0,2.087-2.079v-22.13a2.1,2.1,0,0,0-2.089-2.087H579.553a2.091,2.091,0,0,0-2.087,2.087v22.131a2.079,2.079,0,0,0,2.079,2.077Z" transform="translate(-576.471 -259.135)" fill="#d6d6e3"/><path d="M601.674,297.585H579.552a2.585,2.585,0,0,0-2.583,2.587V322.3a2.576,2.576,0,0,0,2.583,2.571h22.121a2.582,2.582,0,0,0,2.583-2.571V300.172a2.591,2.591,0,0,0-2.584-2.584Z" transform="translate(-576.474 -259.375)" fill="#d6d6e3"/><path d="M601.674,335.535H579.552a2.585,2.585,0,0,0-2.583,2.584v22.122a2.578,2.578,0,0,0,2.583,2.584h22.121a2.585,2.585,0,0,0,2.584-2.584V338.119A2.591,2.591,0,0,0,601.674,335.535Z" transform="translate(-576.474 -259.611)" fill="#d6d6e3"/><path d="M604.218,375.611a2.6,2.6,0,0,0-2.544-2.127H579.552a2.585,2.585,0,0,0-2.583,2.584v22.121a2.578,2.578,0,0,0,2.583,2.584h22.121a2.585,2.585,0,0,0,2.584-2.584V376.072a2.309,2.309,0,0,0-.04-.457Z" transform="translate(-576.474 -259.848)" fill="#d6d6e3"/><path d="M602.677,411.633a2.618,2.618,0,0,0-1-.2H579.552a2.578,2.578,0,0,0-2.583,2.584v22.123a2.571,2.571,0,0,0,2.583,2.584h22.121a2.586,2.586,0,0,0,2.584-2.584V414.019a2.6,2.6,0,0,0-1.58-2.385Z" transform="translate(-576.474 -260.084)" fill="#d6d6e3"/><path d="M648.434,259.635H626.313a2.585,2.585,0,0,0-2.584,2.584v22.131a2.576,2.576,0,0,0,2.584,2.571h22.121a2.583,2.583,0,0,0,2.584-2.571V262.219a2.591,2.591,0,0,0-2.584-2.584Z" transform="translate(-576.766 -259.138)" fill="#d6d6e3"/><path d="M648.434,297.585H626.313a2.585,2.585,0,0,0-2.584,2.587V322.3a2.576,2.576,0,0,0,2.584,2.571h22.121a2.583,2.583,0,0,0,2.584-2.571V300.172a2.591,2.591,0,0,0-2.584-2.584Z" transform="translate(-576.766 -259.375)" fill="#8b5cf6"/><path d="M648.434,335.535H626.313a2.585,2.585,0,0,0-2.584,2.584v22.122a2.578,2.578,0,0,0,2.584,2.584h22.121a2.585,2.585,0,0,0,2.584-2.584V338.119a2.591,2.591,0,0,0-2.584-2.584Z" transform="translate(-576.766 -259.611)" fill="#8b5cf6"/><path d="M648.434,373.485H626.313a2.571,2.571,0,0,0-2.444,1.768,2.461,2.461,0,0,0-.139.815V398.19a2.578,2.578,0,0,0,2.584,2.584h22.121a2.585,2.585,0,0,0,2.584-2.584V376.072A2.592,2.592,0,0,0,648.434,373.485Z" transform="translate(-576.766 -259.848)" fill="#8b5cf6"/><path d="M648.434,411.435H626.313a2.578,2.578,0,0,0-2.583,2.584v22.122a2.578,2.578,0,0,0,2.584,2.584h22.121a2.585,2.585,0,0,0,2.584-2.584V414.019A2.585,2.585,0,0,0,648.434,411.435Z" transform="translate(-576.766 -260.084)" fill="#d6d6e3"/><path d="M695.194,259.635H673.072a2.585,2.585,0,0,0-2.584,2.584v22.131a2.576,2.576,0,0,0,2.584,2.571h22.121a2.582,2.582,0,0,0,2.583-2.571V262.219a2.591,2.591,0,0,0-2.584-2.584Z" transform="translate(-577.057 -259.138)" fill="#8b5cf6"/><path d="M695.194,297.585H673.072a2.585,2.585,0,0,0-2.583,2.587V322.3a2.576,2.576,0,0,0,2.583,2.571h22.121a2.582,2.582,0,0,0,2.584-2.571V300.172a2.591,2.591,0,0,0-2.584-2.584Z" transform="translate(-577.057 -259.375)" fill="#8b5cf6"/><path d="M695.194,335.535H673.072a2.585,2.585,0,0,0-2.584,2.584v22.122a2.578,2.578,0,0,0,2.584,2.584h22.121a2.585,2.585,0,0,0,2.584-2.584V338.119a2.591,2.591,0,0,0-2.582-2.584Z" transform="translate(-577.057 -259.611)" fill="#d6d6e3"/><path d="M695.194,373.485H673.072a2.585,2.585,0,0,0-2.584,2.584V398.19a2.578,2.578,0,0,0,2.584,2.584h22.121a2.585,2.585,0,0,0,2.584-2.584V376.072a2.591,2.591,0,0,0-2.582-2.587Z" transform="translate(-577.057 -259.848)" fill="#8b5cf6"/><path d="M695.194,411.435H673.072a2.578,2.578,0,0,0-2.583,2.584v22.122a2.578,2.578,0,0,0,2.584,2.584h22.121a2.586,2.586,0,0,0,2.584-2.584V414.019a2.584,2.584,0,0,0-2.584-2.584Z" transform="translate(-577.057 -260.084)" fill="#8b5cf6"/><path d="M741.954,259.635H719.833a2.585,2.585,0,0,0-2.584,2.584v22.131a2.577,2.577,0,0,0,2.584,2.571h22.121a2.582,2.582,0,0,0,2.584-2.571V262.219A2.591,2.591,0,0,0,741.954,259.635Z" transform="translate(-577.349 -259.138)" fill="#8b5cf6"/><path d="M719.83,297.085h22.121a3.1,3.1,0,0,1,3.081,3.08V322.3a3.086,3.086,0,0,1-3.08,3.071h-22.13a3.073,3.073,0,0,1-3.073-3.07V300.166a3.086,3.086,0,0,1,3.081-3.081Zm22.121,27.288a2.09,2.09,0,0,0,2.087-2.079v-22.13a2.1,2.1,0,0,0-2.089-2.087H719.83a2.091,2.091,0,0,0-2.087,2.087V322.3a2.079,2.079,0,0,0,2.079,2.077Z" transform="translate(-577.346 -259.371)" fill="#d6d6e3"/><path d="M719.83,335.035h22.121a3.1,3.1,0,0,1,3.081,3.08v22.122a3.086,3.086,0,0,1-3.081,3.081H719.824a3.055,3.055,0,0,1-2.174-.9,3.1,3.1,0,0,1-.9-2.181v-22.12a3.086,3.086,0,0,1,3.081-3.081Zm22.121,27.288a2.091,2.091,0,0,0,2.087-2.087V338.116a2.1,2.1,0,0,0-2.089-2.087H719.829a2.091,2.091,0,0,0-2.087,2.088v22.121a2.1,2.1,0,0,0,.609,1.477,2.069,2.069,0,0,0,1.472.609Z" transform="translate(-577.346 -259.608)" fill="#d6d6e3"/><path d="M741.954,373.485H719.833a2.585,2.585,0,0,0-2.584,2.584V398.19a2.578,2.578,0,0,0,2.584,2.584h22.121a2.585,2.585,0,0,0,2.584-2.584V376.072A2.591,2.591,0,0,0,741.954,373.485Z" transform="translate(-577.349 -259.848)" fill="#d6d6e3"/><path d="M741.954,411.435H719.833a2.578,2.578,0,0,0-2.583,2.584v22.122a2.579,2.579,0,0,0,2.584,2.584h22.121a2.585,2.585,0,0,0,2.584-2.584V414.019A2.585,2.585,0,0,0,741.954,411.435Z" transform="translate(-577.349 -260.084)" fill="#8b5cf6"/><path d="M766.578,259.135h22.133a3.1,3.1,0,0,1,3.081,3.08v22.133a3.086,3.086,0,0,1-3.08,3.071H766.579a3.075,3.075,0,0,1-3.07-3.071V262.216A3.085,3.085,0,0,1,766.578,259.135Zm22.133,27.288a2.09,2.09,0,0,0,2.087-2.079v-22.13a2.1,2.1,0,0,0-2.089-2.087H766.581a2.09,2.09,0,0,0-2.079,2.087v22.131a2.08,2.08,0,0,0,2.077,2.077Z" transform="translate(-577.638 -259.135)" fill="#d6d6e3"/><path d="M766.578,297.085h22.133a3.1,3.1,0,0,1,3.081,3.08V322.3a3.086,3.086,0,0,1-3.08,3.071H766.579a3.074,3.074,0,0,1-3.07-3.071V300.166A3.085,3.085,0,0,1,766.578,297.085Zm0,27.288H788.71a2.09,2.09,0,0,0,2.087-2.079v-22.13a2.1,2.1,0,0,0-2.089-2.087H766.581a2.09,2.09,0,0,0-2.079,2.087V322.3a2.079,2.079,0,0,0,2.077,2.078Z" transform="translate(-577.638 -259.371)" fill="#d6d6e3"/><path d="M766.578,335.035h22.133a3.1,3.1,0,0,1,3.081,3.08v22.122a3.086,3.086,0,0,1-3.081,3.081H766.58a3.073,3.073,0,0,1-3.071-3.082v-22.12A3.085,3.085,0,0,1,766.578,335.035Zm0,27.288h22.131a2.091,2.091,0,0,0,2.087-2.087V338.116a2.1,2.1,0,0,0-2.089-2.087H766.581a2.09,2.09,0,0,0-2.079,2.087v22.121a2.08,2.08,0,0,0,2.077,2.087Z" transform="translate(-577.638 -259.608)" fill="#d6d6e3"/><path d="M788.714,373.485H766.583a2.583,2.583,0,0,0-2.571,2.584V398.19a2.576,2.576,0,0,0,2.571,2.584h22.131a2.585,2.585,0,0,0,2.584-2.584V376.072a2.592,2.592,0,0,0-2.584-2.584Z" transform="translate(-577.64 -259.848)" fill="#8b5cf6"/><path d="M788.714,411.435H766.583a2.577,2.577,0,0,0-2.571,2.584v22.122a2.576,2.576,0,0,0,2.571,2.584h22.131a2.585,2.585,0,0,0,2.584-2.584V414.019A2.585,2.585,0,0,0,788.714,411.435Z" transform="translate(-577.64 -260.084)" fill="#d6d6e3"/><path d="M813.338,259.135h22.136a3.1,3.1,0,0,1,3.081,3.08v22.133a3.086,3.086,0,0,1-3.08,3.071H813.339a3.074,3.074,0,0,1-3.07-3.071V262.216a3.085,3.085,0,0,1,3.069-3.081Zm22.136,27.288a2.09,2.09,0,0,0,2.087-2.079v-22.13a2.1,2.1,0,0,0-2.089-2.087H813.341a2.09,2.09,0,0,0-2.079,2.087v22.131a2.08,2.08,0,0,0,2.077,2.077Z" transform="translate(-577.929 -259.135)" fill="#d6d6e3"/><path d="M813.338,297.085h22.136a3.1,3.1,0,0,1,3.081,3.08V322.3a3.086,3.086,0,0,1-3.08,3.071H813.339a3.075,3.075,0,0,1-3.07-3.071V300.166a3.085,3.085,0,0,1,3.069-3.081Zm0,27.288h22.136a2.09,2.09,0,0,0,2.087-2.079v-22.13a2.1,2.1,0,0,0-2.089-2.087H813.341a2.09,2.09,0,0,0-2.079,2.087V322.3a2.08,2.08,0,0,0,2.077,2.078Z" transform="translate(-577.929 -259.371)" fill="#d6d6e3"/><path d="M835.474,335.535H813.343a2.583,2.583,0,0,0-2.571,2.584v22.122a2.576,2.576,0,0,0,2.571,2.584h22.131a2.585,2.585,0,0,0,2.584-2.584V338.119A2.591,2.591,0,0,0,835.474,335.535Z" transform="translate(-577.932 -259.611)" fill="#8b5cf6"/><path d="M835.474,373.485H813.343a2.584,2.584,0,0,0-2.571,2.584V398.19a2.576,2.576,0,0,0,2.571,2.584h22.131a2.585,2.585,0,0,0,2.584-2.584V376.072a2.591,2.591,0,0,0-2.584-2.584Z" transform="translate(-577.932 -259.848)" fill="#d6d6e3"/><path d="M813.339,410.935h22.135a3.086,3.086,0,0,1,3.081,3.081v22.121a3.086,3.086,0,0,1-3.081,3.081H813.34a3.073,3.073,0,0,1-3.071-3.083V414.016a3.073,3.073,0,0,1,3.07-3.081Zm22.135,27.288a2.091,2.091,0,0,0,2.087-2.088v-22.12a2.091,2.091,0,0,0-2.088-2.087h-22.13a2.08,2.08,0,0,0-2.078,2.086v22.122a2.079,2.079,0,0,0,2.077,2.087Z" transform="translate(-577.929 -260.081)" fill="#d6d6e3"/><path d="M882.234,259.635H860.1a2.583,2.583,0,0,0-2.571,2.584v22.131a2.571,2.571,0,0,0,2.571,2.571h22.132a2.582,2.582,0,0,0,2.584-2.571V262.219A2.591,2.591,0,0,0,882.234,259.635Z" transform="translate(-578.224 -259.138)" fill="#8b5cf6"/><path d="M882.234,297.585H860.1a2.583,2.583,0,0,0-2.571,2.584V322.3a2.571,2.571,0,0,0,2.571,2.571h22.132a2.582,2.582,0,0,0,2.584-2.571V300.172a2.591,2.591,0,0,0-2.585-2.587Z" transform="translate(-578.224 -259.375)" fill="#8b5cf6"/><path d="M882.234,335.535H860.1a2.583,2.583,0,0,0-2.571,2.584v22.122a2.576,2.576,0,0,0,2.571,2.584h22.131a2.585,2.585,0,0,0,2.584-2.584V338.119A2.591,2.591,0,0,0,882.234,335.535Z" transform="translate(-578.224 -259.611)" fill="#d6d6e3"/><path d="M860.1,372.985h22.133a3.1,3.1,0,0,1,3.081,3.08v22.122a3.086,3.086,0,0,1-3.081,3.081H860.1a3.073,3.073,0,0,1-3.071-3.082v-22.12a3.086,3.086,0,0,1,3.065-3.081Zm22.133,27.288a2.091,2.091,0,0,0,2.087-2.087V376.066a2.1,2.1,0,0,0-2.089-2.087H860.1a2.09,2.09,0,0,0-2.079,2.087v22.121a2.08,2.08,0,0,0,2.078,2.087Z" transform="translate(-578.221 -259.845)" fill="#d6d6e3"/><path d="M882.234,411.435H860.1a2.576,2.576,0,0,0-2.571,2.584v22.122a2.576,2.576,0,0,0,2.571,2.584h22.131a2.585,2.585,0,0,0,2.584-2.584V414.019A2.585,2.585,0,0,0,882.234,411.435Z" transform="translate(-578.224 -260.084)" fill="#8b5cf6"/><path d="M928.994,259.635H906.863a2.583,2.583,0,0,0-2.571,2.584v22.131a2.571,2.571,0,0,0,2.571,2.571h22.132a2.582,2.582,0,0,0,2.584-2.571V262.219A2.591,2.591,0,0,0,928.994,259.635Z" transform="translate(-578.515 -259.138)" fill="#8b5cf6"/><path d="M928.994,297.585H906.863a2.583,2.583,0,0,0-2.571,2.584V322.3a2.571,2.571,0,0,0,2.571,2.571h22.132a2.582,2.582,0,0,0,2.584-2.571V300.172a2.591,2.591,0,0,0-2.585-2.587Z" transform="translate(-578.515 -259.375)" fill="#8b5cf6"/><path d="M928.994,335.535H906.863a2.583,2.583,0,0,0-2.571,2.584v22.122a2.576,2.576,0,0,0,2.571,2.584h22.131a2.585,2.585,0,0,0,2.584-2.584V338.119A2.591,2.591,0,0,0,928.994,335.535Z" transform="translate(-578.515 -259.611)" fill="#d6d6e3"/><path d="M928.994,373.485H906.863a2.583,2.583,0,0,0-2.571,2.584V398.19a2.576,2.576,0,0,0,2.571,2.584h22.131a2.585,2.585,0,0,0,2.584-2.584V376.072a2.591,2.591,0,0,0-2.584-2.584Z" transform="translate(-578.515 -259.848)" fill="#8b5cf6"/><path d="M928.994,411.435H906.863a2.576,2.576,0,0,0-2.571,2.584v22.122a2.576,2.576,0,0,0,2.571,2.584h22.131a2.585,2.585,0,0,0,2.584-2.584V414.019A2.585,2.585,0,0,0,928.994,411.435Z" transform="translate(-578.515 -260.084)" fill="#8b5cf6"/><path d="M975.754,259.635H953.623a2.583,2.583,0,0,0-2.571,2.584v22.131a2.571,2.571,0,0,0,2.571,2.571h22.132a2.582,2.582,0,0,0,2.583-2.571V262.219A2.591,2.591,0,0,0,975.754,259.635Z" transform="translate(-578.807 -259.138)" fill="#d6d6e3"/><path d="M975.754,297.585H953.623a2.583,2.583,0,0,0-2.571,2.584V322.3a2.571,2.571,0,0,0,2.571,2.571h22.132a2.583,2.583,0,0,0,2.583-2.571V300.172a2.591,2.591,0,0,0-2.585-2.587Z" transform="translate(-578.807 -259.375)" fill="#8b5cf6"/><path d="M975.754,335.535H953.623a2.583,2.583,0,0,0-2.571,2.584v22.122a2.576,2.576,0,0,0,2.571,2.584h22.131a2.585,2.585,0,0,0,2.584-2.584V338.119a2.591,2.591,0,0,0-2.583-2.584Z" transform="translate(-578.807 -259.611)" fill="#8b5cf6"/><path d="M975.754,373.485H953.623a2.583,2.583,0,0,0-2.571,2.584V398.19a2.576,2.576,0,0,0,2.571,2.584h22.131a2.585,2.585,0,0,0,2.584-2.584V376.072a2.591,2.591,0,0,0-2.583-2.584Z" transform="translate(-578.807 -259.848)" fill="#8b5cf6"/><path d="M975.754,411.435H953.623a2.577,2.577,0,0,0-2.571,2.584v22.122a2.576,2.576,0,0,0,2.571,2.584h22.131a2.585,2.585,0,0,0,2.584-2.584V414.019A2.585,2.585,0,0,0,975.754,411.435Z" transform="translate(-578.807 -260.084)" fill="#d6d6e3"/><path d="M1022.514,259.635h-22.131a2.583,2.583,0,0,0-2.571,2.584v22.131a2.571,2.571,0,0,0,2.571,2.571h22.132a2.582,2.582,0,0,0,2.583-2.571V262.219a2.591,2.591,0,0,0-2.584-2.584Z" transform="translate(-579.098 -259.138)" fill="#d6d6e3"/><path d="M1022.514,297.585h-22.131a2.582,2.582,0,0,0-2.571,2.584V322.3a2.571,2.571,0,0,0,2.571,2.571h22.132a2.582,2.582,0,0,0,2.583-2.571V300.172a2.591,2.591,0,0,0-2.585-2.587Z" transform="translate(-579.098 -259.375)" fill="#d6d6e3"/><path d="M1022.514,335.535h-22.131a2.583,2.583,0,0,0-2.571,2.584v22.122a2.576,2.576,0,0,0,2.571,2.584h22.131a2.585,2.585,0,0,0,2.584-2.584V338.119A2.591,2.591,0,0,0,1022.514,335.535Z" transform="translate(-579.098 -259.611)" fill="#8b5cf6"/><path d="M1022.514,373.485h-22.131a2.584,2.584,0,0,0-2.571,2.584V398.19a2.576,2.576,0,0,0,2.571,2.584h22.131a2.585,2.585,0,0,0,2.584-2.584V376.072a2.591,2.591,0,0,0-2.584-2.584Z" transform="translate(-579.098 -259.848)" fill="#d6d6e3"/><path d="M1022.514,411.435h-22.131a2.576,2.576,0,0,0-2.571,2.584v22.122a2.577,2.577,0,0,0,2.571,2.584h22.131a2.585,2.585,0,0,0,2.584-2.584V414.019A2.585,2.585,0,0,0,1022.514,411.435Z" transform="translate(-579.098 -260.084)" fill="#d6d6e3"/></g></g></g></svg>