<?xml version="1.0" encoding="utf-8"?>
<svg xmlns="http://www.w3.org/2000/svg" width="800.901" height="744.774" viewBox="0 0 800.901 744.774" role="img" artist="Katerina Limpitsouni" source="https://undraw.co/">
  <g transform="translate(-650 -341.075)">
    <g transform="translate(671.329 341.075)"/>
    <g transform="matrix(1.658423, 0, 0, 1.696006, 688.214722, 378.145966)" style="">
      <path d="M583.528,555H356.851a10.777,10.777,0,0,1-10.763-10.772V236.516a10.776,10.776,0,0,1,10.763-10.763H583.528a10.777,10.777,0,0,1,10.763,10.763V544.23A10.777,10.777,0,0,1,583.528,555Z" transform="translate(-241.056 -225.753)" fill="#f2f2f2"/>
      <path d="M443.212,381.884a2.815,2.815,0,0,0-1.384.486,41.378,41.378,0,0,0,6.2-.861Z" transform="translate(-262.272 -260.28)" fill="#2f2e41"/>
      <path d="M426,273.085a43.25,43.25,0,0,0-21.575,80.73,42.538,42.538,0,0,0,6.873,3.2l.4.139a43.01,43.01,0,0,0,14.3,2.429c.943,0,1.883-.031,2.811-.1a42.553,42.553,0,0,0,6.374-.883c1.175-.256,2.327-.561,3.418-.894.265-.077.514-.155.786-.241A43.254,43.254,0,0,0,426,273.081Zm25.09,75.648a41.008,41.008,0,0,1-12.415,6.546l-.74.234c-1.035.32-2.124.6-3.245.841a39.882,39.882,0,0,1-6.032.841c-.883.062-1.766.093-2.663.093a40.9,40.9,0,0,1-13.536-2.3l-.382-.133a39.875,39.875,0,0,1-6.818-3.206,40.923,40.923,0,1,1,45.828-2.919Z" transform="translate(-249.183 -236.247)" fill="#ccc"/>
      <path d="M575.056,325.547h-64.14a5.078,5.078,0,1,1,0-10.156h64.14a5.078,5.078,0,0,1,0,10.156Z" transform="translate(-276.465 -245.629)" fill="#e6e6e6"/>
      <path d="M595.986,347.55H510.915a5.078,5.078,0,1,1,0-10.156h85.073a5.078,5.078,0,0,1,0,10.156Z" transform="translate(-276.465 -250.506)" fill="#e6e6e6"/>
      <path d="M547.709,431.939H387.96a5.078,5.078,0,1,1,0-10.156H547.71a5.078,5.078,0,1,1,0,10.156Z" transform="translate(-249.215 -269.206)" fill="#e6e6e6"/>
      <path d="M568.64,453.942H387.96a5.078,5.078,0,0,1,0-10.156H568.642a5.078,5.078,0,1,1,0,10.156Z" transform="translate(-249.215 -274.088)" fill="#e6e6e6"/>
      <path d="M698.879,352.194a9.443,9.443,0,0,0-5.228-9.494L518.956,257.318a9.419,9.419,0,0,0-12.6,4.321h0L440.822,395.7a9.434,9.434,0,0,0,4.327,12.6l174.694,85.382a9.434,9.434,0,0,0,12.6-4.327L697.969,355.3a9.354,9.354,0,0,0,.91-3.107Z" transform="translate(-261.847 -232.542)" fill="#fff"/>
      <path d="M698.879,352.194a9.443,9.443,0,0,0-5.228-9.494L518.956,257.318a9.419,9.419,0,0,0-12.6,4.321h0L440.822,395.7a9.434,9.434,0,0,0,4.327,12.6l174.694,85.382a9.434,9.434,0,0,0,12.6-4.327L697.969,355.3a9.354,9.354,0,0,0,.91-3.107ZM631.46,488.871a8.324,8.324,0,0,1-11.119,3.817L445.647,407.307a8.324,8.324,0,0,1-3.818-11.119l65.52-134.059a8.324,8.324,0,0,1,11.119-3.817l174.694,85.382a8.323,8.323,0,0,1,3.817,11.119Z" transform="translate(-261.847 -232.542)" fill="#3f3d56"/>
      <path d="M688.449,364.124,642.7,457.737a2.623,2.623,0,0,1-3.506,1.206h0L480.283,381.275a2.211,2.211,0,0,1-.324-.192,2.621,2.621,0,0,1-.883-3.312l45.751-93.613a2.623,2.623,0,0,1,3.506-1.206h0L687.241,360.62a2.623,2.623,0,0,1,1.206,3.506h0Z" transform="translate(-270.478 -238.371)" fill="#e6e6e6"/>
      <circle cx="23.012" cy="23.012" r="23.012" transform="translate(255.45 74.968)" fill="#8b5cf6"/>
      <path d="M583.213,442.869,481.784,393.3a2.3,2.3,0,0,1-.364-.221L570,333.428a3.738,3.738,0,0,1,5.846,2.857l4.941,71.5.238,3.422Z" transform="translate(-271.053 -249.476)" fill="#090814"/>
      <path d="M391.188,320.87l-34.63-16.925,29.069-16.385,2.093-1.179,1.046-.592.238,3.422Z" transform="translate(-79.026 -127.478)" opacity="0.2" style="isolation:isolate"/>
      <path d="M659.776,486.216,572.049,443.34l29.069-16.384,2.093-1.181,37.88-21.352a4.99,4.99,0,0,1,6.844,2.855,4.468,4.468,0,0,1,.124.554Z" transform="translate(-291.138 -265.224)" fill="#090814"/>
      <path d="M620.925,662.947H236.837a25.715,25.715,0,0,1-25.686-25.686V426.328a25.715,25.715,0,0,1,25.686-25.686h47.091a25.629,25.629,0,0,1,17.276,6.679l51.068,36.467a18.045,18.045,0,0,0,12.187,4.725H623.311A25.686,25.686,0,0,1,649,474.565l-2.385,163.063A25.794,25.794,0,0,1,620.925,662.947Z" transform="translate(-211.151 -264.518)" fill="#8b5cf6"/>
      <path d="M693.221,281.846h.042a27.881,27.881,0,0,0,.622-55.638.638.638,0,0,0-.686.627l-.609,54.375a.638.638,0,0,0,.631.645Z" transform="translate(-514.898 -173.896)" fill="#8b5cf6"/>
      <path d="M664.183,237.433a.821.821,0,0,1,.576.245l18.718,19.144a.811.811,0,0,1,.234.581l-.291,26.017a.807.807,0,0,1-.265.592.822.822,0,0,1-.618.221,28.062,28.062,0,0,1-18.987-46.517.82.82,0,0,1,.594-.278Z" transform="translate(-507.723 -176.138)" fill="#e6e6e6"/>
      <path d="M685.509,225.929a.824.824,0,0,1,.561.221.81.81,0,0,1,.252.6l-.263,23.476a.817.817,0,0,1-1.4.563l-16.338-16.7a.819.819,0,0,1,.044-1.186,28.121,28.121,0,0,1,17.093-6.972Z" transform="translate(-510.019 -173.847)" fill="#090814"/>
      <g transform="translate(176.159 237.623)">
        <path d="M542.411,470.607c-14.947,0-27.119-12.923-27.119-28.807s12.165-28.807,27.119-28.807,27.119,12.923,27.119,28.807S557.364,470.607,542.411,470.607Zm0-50.337c-10.94,0-19.839,9.657-19.839,21.528s8.9,21.528,19.839,21.528,19.839-9.659,19.839-21.528-8.9-21.527-19.839-21.527Z" transform="translate(-499.637 -412.992)" fill="#d6d6e3"/>
        <path d="M564.948,526.575H513.58A17.1,17.1,0,0,1,496.5,509.493v-50.38a11.71,11.71,0,0,1,11.7-11.7h62.137a11.708,11.708,0,0,1,11.7,11.7v50.379A17.1,17.1,0,0,1,564.948,526.575Z" transform="translate(-496.496 -418.757)" fill="#f2f2f2"/>
        <path d="M555.86,479.826a10.009,10.009,0,1,0-14.558,8.908v15.66h9.105v-15.66A10,10,0,0,0,555.86,479.826Z" transform="translate(-503.08 -422.507)" fill="#8b5cf6"/>
      </g>
    </g>
  </g>
</svg>