<?xml version="1.0" encoding="utf-8"?>
<svg xmlns="http://www.w3.org/2000/svg" width="888" height="710.80704" viewBox="0 0 888 710.80704" role="img" artist="Katerina Limpitsouni" source="https://undraw.co/">
  <title>server_cluster</title>
  <rect x="836.78" y="994.598" width="467.456" height="380.36" transform="matrix(0, 1, -1, 0, 1767.737793, -723.011475)" fill="#2f2e41" style=""/>
  <rect x="327.439" y="99.494" width="511.047" height="185.555" fill="#3f3d56" style=""/>
  <rect x="327.439" y="306.459" width="511.047" height="185.555" fill="#3f3d56" style=""/>
  <rect x="327.439" y="513.424" width="511.047" height="185.555" fill="#3f3d56" style=""/>
  <rect x="327.439" y="178.172" width="511.047" height="28.548" fill="#8b5cf6" style=""/>
  <rect x="327.439" y="385.136" width="511.047" height="28.548" fill="#8b5cf6" style=""/>
  <rect x="327.439" y="592.101" width="511.047" height="28.548" fill="#8b5cf6" style=""/>
  <circle cx="574.532" cy="291.354" r="6" fill="#8b5cf6" style="" transform="matrix(1.950561, 0, 0, 1.78418, -381.653015, -393.570435)"/>
  <circle cx="595.532" cy="291.354" r="6" fill="#8b5cf6" style="" transform="matrix(1.950561, 0, 0, 1.78418, -381.653015, -393.570435)"/>
  <circle cx="616.532" cy="291.354" r="6" fill="#8b5cf6" style="" transform="matrix(1.950561, 0, 0, 1.78418, -381.653015, -393.570435)"/>
  <circle cx="574.532" cy="405.354" r="6" fill="#8b5cf6" style="" transform="matrix(1.950561, 0, 0, 1.78418, -381.653015, -393.570435)"/>
  <circle cx="595.532" cy="405.354" r="6" fill="#8b5cf6" style="" transform="matrix(1.950561, 0, 0, 1.78418, -381.653015, -393.570435)"/>
  <circle cx="616.532" cy="405.354" r="6" fill="#8b5cf6" style="" transform="matrix(1.950561, 0, 0, 1.78418, -381.653015, -393.570435)"/>
  <circle cx="574.532" cy="519.354" r="6" fill="#8b5cf6" style="" transform="matrix(1.950561, 0, 0, 1.78418, -381.653015, -393.570435)"/>
  <circle cx="595.532" cy="519.354" r="6" fill="#8b5cf6" style="" transform="matrix(1.950561, 0, 0, 1.78418, -381.653015, -393.570435)"/>
  <circle cx="616.532" cy="519.354" r="6" fill="#8b5cf6" style="" transform="matrix(1.950561, 0, 0, 1.78418, -381.653015, -393.570435)"/>
</svg>