<?xml version="1.0" encoding="utf-8"?>
<svg xmlns="http://www.w3.org/2000/svg" width="888" height="710.80704" viewBox="0 0 888 710.80704" role="img" artist="Katerina Limpitsouni" source="https://undraw.co/">
  <title>server_cluster</title>
  <rect x="895.451" y="1121.02" width="500.232" height="428.708" transform="matrix(0, 1, -1, 0, 1775.042358, -845.641296)" fill="#2f2e41" style=""/>
  <rect x="151.665" y="34.534" width="576.007" height="198.565" fill="#3f3d56" style=""/>
  <rect x="151.665" y="256.01" width="576.007" height="198.565" fill="#3f3d56" style=""/>
  <rect x="151.665" y="477.487" width="576.007" height="198.565" fill="#3f3d56" style=""/>
  <rect x="151.665" y="118.729" width="576.007" height="30.55" fill="#8b5cf6" style=""/>
  <rect x="151.665" y="340.204" width="576.007" height="30.55" fill="#8b5cf6" style=""/>
  <rect x="151.665" y="561.68" width="576.007" height="30.55" fill="#8b5cf6" style=""/>
  <circle cx="574.532" cy="291.354" r="6" fill="#8b5cf6" style="" transform="matrix(2.1985, 0, 0, 1.909278, -647.560547, -493.101501)"/>
  <circle cx="595.532" cy="291.354" r="6" fill="#8b5cf6" style="" transform="matrix(2.1985, 0, 0, 1.909278, -647.560547, -493.101501)"/>
  <circle cx="616.532" cy="291.354" r="6" fill="#8b5cf6" style="" transform="matrix(2.1985, 0, 0, 1.909278, -647.560547, -493.101501)"/>
  <circle cx="574.532" cy="405.354" r="6" fill="#8b5cf6" style="" transform="matrix(2.1985, 0, 0, 1.909278, -647.560547, -493.101501)"/>
  <circle cx="595.532" cy="405.354" r="6" fill="#8b5cf6" style="" transform="matrix(2.1985, 0, 0, 1.909278, -647.560547, -493.101501)"/>
  <circle cx="616.532" cy="405.354" r="6" fill="#8b5cf6" style="" transform="matrix(2.1985, 0, 0, 1.909278, -647.560547, -493.101501)"/>
  <circle cx="574.532" cy="519.354" r="6" fill="#8b5cf6" style="" transform="matrix(2.1985, 0, 0, 1.909278, -647.560547, -493.101501)"/>
  <circle cx="595.532" cy="519.354" r="6" fill="#8b5cf6" style="" transform="matrix(2.1985, 0, 0, 1.909278, -647.560547, -493.101501)"/>
  <circle cx="616.532" cy="519.354" r="6" fill="#8b5cf6" style="" transform="matrix(2.1985, 0, 0, 1.909278, -647.560547, -493.101501)"/>
</svg>